<svg width="17" height="21" viewBox="0 0 17 21" fill="none" xmlns="http://www.w3.org/2000/svg">
<path d="M9.32918 19.9229L16.3604 12.8916C16.5806 12.6715 16.7043 12.3729 16.7043 12.0615C16.7043 11.7502 16.5806 11.4516 16.3604 11.2314C16.1403 11.0113 15.8417 10.8876 15.5304 10.8876C15.219 10.8876 14.9204 11.0113 14.7003 11.2314L9.67195 16.2617L9.67195 1.90625C9.67195 1.59545 9.54849 1.29738 9.32872 1.07761C9.10895 0.85784 8.81088 0.734375 8.50008 0.734375C8.18928 0.734375 7.89121 0.85784 7.67144 1.07761C7.45167 1.29738 7.3282 1.59545 7.3282 1.90625L7.3282 16.2617L2.29695 11.2334C2.0768 11.0132 1.77822 10.8896 1.46688 10.8896C1.15554 10.8896 0.856948 11.0132 0.636798 11.2334C0.416648 11.4535 0.292969 11.7521 0.292969 12.0635C0.292969 12.3748 0.416648 12.6734 0.636798 12.8936L7.66805 19.9248C7.77706 20.0341 7.9066 20.1207 8.0492 20.1798C8.1918 20.2389 8.34467 20.2692 8.49902 20.269C8.65337 20.2688 8.80617 20.2381 8.94863 20.1787C9.09109 20.1193 9.22042 20.0324 9.32918 19.9229Z" fill="#0A2131"/>
</svg>
