<svg width="31" height="21" viewBox="0 0 31 21" fill="none" xmlns="http://www.w3.org/2000/svg">
<path d="M1.83333 20.75H29.1667C30.1063 20.75 30.875 19.9813 30.875 19.0417C30.875 18.1021 30.1063 17.3333 29.1667 17.3333H1.83333C0.89375 17.3333 0.125 18.1021 0.125 19.0417C0.125 19.9813 0.89375 20.75 1.83333 20.75ZM1.83333 12.2083H29.1667C30.1063 12.2083 30.875 11.4396 30.875 10.5C30.875 9.56042 30.1063 8.79167 29.1667 8.79167H1.83333C0.89375 8.79167 0.125 9.56042 0.125 10.5C0.125 11.4396 0.89375 12.2083 1.83333 12.2083ZM0.125 1.95833C0.125 2.89792 0.89375 3.66667 1.83333 3.66667H29.1667C30.1063 3.66667 30.875 2.89792 30.875 1.95833C30.875 1.01875 30.1063 0.25 29.1667 0.25H1.83333C0.89375 0.25 0.125 1.01875 0.125 1.95833Z" fill="#CBE7EF"/>
</svg>
