<svg width="17" height="21" viewBox="0 0 17 21" fill="none" xmlns="http://www.w3.org/2000/svg">
<path d="M9.32918 1.08057L16.3604 8.11182C16.5806 8.33197 16.7043 8.63056 16.7043 8.94189C16.7043 9.25323 16.5806 9.55182 16.3604 9.77197C16.1403 9.99212 15.8417 10.1158 15.5304 10.1158C15.219 10.1158 14.9204 9.99212 14.7003 9.77197L9.67195 4.7417L9.67195 19.0972C9.67195 19.408 9.54849 19.706 9.32872 19.9258C9.10895 20.1456 8.81088 20.269 8.50008 20.269C8.18928 20.269 7.89121 20.1456 7.67144 19.9258C7.45167 19.706 7.3282 19.408 7.3282 19.0972L7.3282 4.7417L2.29695 9.77002C2.0768 9.99017 1.77822 10.1139 1.46688 10.1139C1.15554 10.1139 0.856948 9.99017 0.636798 9.77002C0.416648 9.54987 0.292969 9.25128 0.292969 8.93994C0.292969 8.6286 0.416648 8.33002 0.636798 8.10987L7.66805 1.07862C7.77706 0.969347 7.9066 0.88269 8.0492 0.823624C8.1918 0.764557 8.34467 0.734245 8.49902 0.734426C8.65337 0.734608 8.80617 0.76528 8.94863 0.824682C9.09109 0.884083 9.22042 0.971043 9.32918 1.08057Z" fill="#0A2131"/>
</svg>
