<svg width="1440" height="194" viewBox="0 0 1440 194" fill="none" xmlns="http://www.w3.org/2000/svg">
<path d="M-1 78H1443V171H-1V78Z" fill="#07131F"/>
<path fill-rule="evenodd" clip-rule="evenodd" d="M0 32.3441L21.6 27.7785C43.2 23.2129 87.6 14.0817 130.8 18.6473C174 23.2129 218.4 41.4753 261.6 42.9971C306 44.519 349.2 29.3003 392.4 27.7785C436.8 26.2566 480 38.4315 523.2 46.0408C567.6 53.6502 610.8 56.6939 654 56.6939C698.4 56.6939 741.6 53.6502 786 41.4753C829.2 29.3003 872.4 7.99424 916.8 1.90678C960 -4.18068 1003.2 4.95051 1047.6 20.1692C1090.8 35.3878 1134 56.6939 1178.4 58.2158C1221.6 59.7376 1266 41.4753 1309.2 29.3003C1352.4 17.1254 1396.8 11.038 1418.4 7.99424L1440 4.95051V78H1418.4C1396.8 78 1352.4 78 1309.2 78C1266 78 1221.6 78 1178.4 78C1134 78 1090.8 78 1047.6 78C1003.2 78 960 78 916.8 78C872.4 78 829.2 78 786 78C741.6 78 698.4 78 654 78C610.8 78 567.6 78 523.2 78C480 78 436.8 78 392.4 78C349.2 78 306 78 261.6 78C218.4 78 174 78 130.8 78C87.6 78 43.2 78 21.6 78H0V32.3441Z" fill="#07131F"/>
<path d="M1 129H1441V194H1V129Z" fill="url(#paint0_linear_800_60)"/>
<defs>
<linearGradient id="paint0_linear_800_60" x1="721.166" y1="129" x2="721.02" y2="194" gradientUnits="userSpaceOnUse">
<stop stop-color="#061825" stop-opacity="0.2"/>
<stop offset="0.295" stop-color="#071A27" stop-opacity="0.583533"/>
<stop offset="0.56" stop-color="#081D2B" stop-opacity="0.765"/>
<stop offset="1" stop-color="#0A2131"/>
</linearGradient>
</defs>
</svg>
