<svg width="1440" height="108" viewBox="0 0 1440 108" fill="none" xmlns="http://www.w3.org/2000/svg">
<path fill-rule="evenodd" clip-rule="evenodd" d="M0 44.7841L21.6 38.4625C43.2 32.1409 87.6 19.4977 130.8 25.8193C174 32.1409 218.4 57.4273 261.6 59.5345C306 61.6417 349.2 40.5697 392.4 38.4625C436.8 36.3553 480 53.2129 523.2 63.7489C567.6 74.2849 610.8 78.4992 654 78.4992C698.4 78.4992 741.6 74.2849 786 57.4273C829.2 40.5697 872.4 11.0689 916.8 2.64016C960 -5.78863 1003.2 6.85455 1047.6 27.9265C1090.8 48.9985 1134 78.4992 1178.4 80.6064C1221.6 82.7136 1266 57.4273 1309.2 40.5697C1352.4 23.7121 1396.8 15.2833 1418.4 11.0689L1440 6.85455V108H1418.4C1396.8 108 1352.4 108 1309.2 108C1266 108 1221.6 108 1178.4 108C1134 108 1090.8 108 1047.6 108C1003.2 108 960 108 916.8 108C872.4 108 829.2 108 786 108C741.6 108 698.4 108 654 108C610.8 108 567.6 108 523.2 108C480 108 436.8 108 392.4 108C349.2 108 306 108 261.6 108C218.4 108 174 108 130.8 108C87.6 108 43.2 108 21.6 108H0V44.7841Z" fill="#0A2131"/>
</svg>
